<svg width="20" height="19" viewBox="0 0 20 19" fill="none" xmlns="http://www.w3.org/2000/svg">
<g clip-path="url(#clip0)">
<path d="M17.8947 8.11501H11.4924V1.71269C11.4924 0.909174 10.8409 0.257324 10.037 0.257324C9.23314 0.257324 8.58167 0.908801 8.58167 1.71269V8.11501H2.18009C1.37657 8.11501 0.725098 8.76649 0.725098 9.57038C0.725098 10.3743 1.3762 11.0254 2.18009 11.0254H8.58241V17.4277C8.58241 18.2312 9.23389 18.8831 10.0378 18.8831C10.8417 18.8831 11.4931 18.2316 11.4931 17.4277V11.0254H17.8955C18.6994 11.0254 19.3508 10.3739 19.3508 9.57038C19.3508 8.76686 18.6986 8.11501 17.8947 8.11501Z" fill="white"/>
</g>
<defs>
<clipPath id="clip0">
<rect width="18.6257" height="18.6257" fill="white" transform="translate(0.725098 0.257324)"/>
</clipPath>
</defs>
</svg>
